<?xml version="1.0" encoding="utf-8"?>
<!-- Generator: Adobe Illustrator 19.2.0, SVG Export Plug-In . SVG Version: 6.00 Build 0)  -->
<svg xmlns="http://www.w3.org/2000/svg" xmlns:xlink="http://www.w3.org/1999/xlink" version="1.1" id="sunsethorizont" x="0px" y="0px" viewBox="0 0 237.8142 210.6255" enable-background="new 0 0 237.8142 210.6255" xml:space="preserve" width="512" height="512">
<g>
	<path fill="#D0E8FF" d="M119.9985,76.5272c-48.5234,0-88,39.4766-88,88c0,5.8125,0.5703,11.6035,1.6953,17.2695   c23.5078-8.5742,53.9258-13.2695,86.3047-13.2695s62.7969,4.6953,86.3047,13.2695c1.125-5.666,1.6953-11.457,1.6953-17.2695   C207.9985,116.0038,168.522,76.5272,119.9985,76.5272z M187.9985,171.1678c-2.2109,0-4-1.791-4-4c0-34.1875-27.8125-62-62-62   c-2.2109,0-4-1.791-4-4s1.7891-4,4-4c38.5976,0,70,31.4023,70,70C191.9985,169.3768,190.2095,171.1678,187.9985,171.1678z"/>
	<path fill="#1C71DA" d="M121.9985,97.1678c-2.2109,0-4,1.791-4,4s1.7891,4,4,4c34.1875,0,62,27.8125,62,62c0,2.209,1.7891,4,4,4   s4-1.791,4-4C191.9985,128.5702,160.5962,97.1678,121.9985,97.1678z"/>
	<path fill="#1C71DA" d="M236.5024,198.0292c-5.1306-4.6533-12.0161-8.6553-22.6985-13.2109   c1.4287-6.647,2.1946-13.4492,2.1946-20.291c0-52.9355-43.0664-96-96-96s-96,43.0645-96,96c0,6.8599,0.7698,13.6807,2.2063,20.3447   c-12.0884,4.9678-19.7339,9.5269-25.0383,14.8467c-1.5586,1.5645-1.5547,4.0977,0.0078,5.6562   c0.7812,0.7793,1.8008,1.168,2.8242,1.168c1.0273,0,2.0508-0.3926,2.832-1.1758c6.582-6.6035,18.2227-11.5684,27.625-15.1582   c0.1396-0.0532,0.2334-0.1631,0.3633-0.2295c22.8516-8.6606,52.9131-13.4521,85.1797-13.4521   c33.4336,0,64.5781,5.1016,87.7031,14.3672c0.1985,0.0791,0.4099,0.0723,0.6147,0.1187c0.2134,0.1426,0.3894,0.3257,0.6353,0.4282   c10.8438,4.5078,17.4766,8.252,22.1758,12.5137c0.7656,0.6953,1.7266,1.0371,2.6875,1.0371c1.0898,0,2.1719-0.4414,2.9609-1.3125   C238.2603,202.0428,238.1392,199.5135,236.5024,198.0292z M119.9985,168.5272c-32.3789,0-62.7969,4.6953-86.3047,13.2695   c-1.125-5.666-1.6953-11.457-1.6953-17.2695c0-48.5234,39.4766-88,88-88s88,39.4766,88,88c0,5.8125-0.5703,11.6035-1.6953,17.2695   C182.7954,173.2225,152.3774,168.5272,119.9985,168.5272z"/>
</g>
<path fill="#FF5D5D" d="M176.3839,52c-1.0234,0-2.0469-0.3906-2.8281-1.1714c-1.5625-1.5625-1.5625-4.0952,0-5.6572l14.1426-14.1421  c1.5605-1.5615,4.0938-1.5615,5.6562,0c1.5625,1.5625,1.5625,4.0952,0,5.6572l-14.1426,14.1421  C178.4318,51.6094,177.4074,52,176.3839,52z"/>
<path fill="#FF5D5D" d="M190.5265,51.9985c-1.0234,0-2.0479-0.3906-2.8281-1.1714l-14.1426-14.1426  c-1.5625-1.5625-1.5625-4.0947,0-5.6572c1.5605-1.5615,4.0957-1.5615,5.6562,0l14.1426,14.1426  c1.5625,1.5625,1.5625,4.0947,0,5.6572C192.5744,51.6079,191.55,51.9985,190.5265,51.9985z"/>
<path fill="#00D40B" d="M110.3839,28c-7.7197,0-14-6.2803-14-14s6.2803-14,14-14s14,6.2803,14,14S118.1037,28,110.3839,28z   M110.3839,8c-3.3086,0-6,2.6914-6,6s2.6914,6,6,6s6-2.6914,6-6S113.6925,8,110.3839,8z"/>
<path fill="#FFC504" d="M131.6974,210.6255c-1.0234,0-2.0479-0.3906-2.8281-1.1714l-11.3135-11.3135  c-1.5625-1.5625-1.5625-4.0947,0-5.6572l11.3135-11.3135c1.5605-1.5615,4.0957-1.5615,5.6562,0l11.3135,11.3135  c1.5625,1.5625,1.5625,4.0947,0,5.6572l-11.3135,11.3135C133.7453,210.2349,132.7209,210.6255,131.6974,210.6255z M126.0412,195.312  l5.6563,5.6567l5.6562-5.6567l-5.6562-5.6567L126.0412,195.312z"/>
</svg>
